<?xml version="1.0" standalone="no"?>
<!DOCTYPE svg PUBLIC "-//W3C//DTD SVG 20010904//EN"
 "http://www.w3.org/TR/2001/REC-SVG-20010904/DTD/svg10.dtd">
<svg version="1.0" xmlns="http://www.w3.org/2000/svg"
 width="500.000000pt" height="500.000000pt" viewBox="0 0 500.000000 500.000000"
 preserveAspectRatio="xMidYMid meet">
<metadata>
Created by potrace 1.14, written by Peter Selinger 2001-2017
</metadata>
<g transform="translate(0.000000,500.000000) scale(0.100000,-0.100000)"
fill="#000000" stroke="none">
<path d="M1335 4203 c-44 -10 -113 -67 -134 -110 -21 -43 -21 -47 -21 -1000 0
-950 0 -957 21 -1000 25 -52 76 -96 130 -112 44 -13 441 -13 514 0 22 4 58 10
80 13 130 21 329 108 449 198 179 134 345 362 395 541 12 42 17 47 43 47 16 0
50 -11 77 -24 164 -84 208 -311 84 -441 -75 -80 -117 -93 -313 -98 -125 -3
-151 -7 -188 -26 -152 -77 -183 -285 -60 -396 64 -58 95 -67 253 -70 160 -4
205 -13 261 -53 166 -121 155 -373 -20 -476 -125 -73 -267 -43 -371 78 -106
124 -262 137 -368 31 -78 -78 -98 -183 -52 -280 45 -95 200 -232 326 -288 79
-35 117 -47 203 -63 42 -7 205 -7 246 0 304 57 543 277 621 572 24 92 29 260
9 345 -30 132 -72 224 -146 321 l-44 57 56 77 c104 146 146 273 145 449 0 120
-10 186 -44 280 -42 116 -126 234 -230 323 -103 88 -276 164 -402 174 l-40 4
-22 86 c-81 316 -298 586 -588 731 -72 36 -212 84 -267 91 -26 4 -66 10 -90
14 -46 9 -480 13 -513 5z m491 -426 c5 -3 25 -8 46 -11 75 -12 185 -65 268
-129 128 -99 226 -257 254 -409 7 -36 6 -38 -47 -71 -78 -50 -177 -147 -215
-210 -58 -96 -53 -204 13 -291 15 -20 36 -38 47 -42 19 -6 19 -6 1 -26 -31
-34 -138 -107 -194 -131 -47 -21 -84 -32 -174 -54 -11 -2 -66 -6 -122 -9
l-103 -4 0 693 c0 382 3 697 7 701 8 7 205 2 219 -7z"/>
</g>
</svg>
