<svg width="1842" height="658" viewBox="0 0 1842 658" fill="none" xmlns="http://www.w3.org/2000/svg">
<path fill-rule="evenodd" clip-rule="evenodd" d="M498.058 185.788C471.187 97.1752 408.259 32.7151 323.503 6.97416C293.253 -2.21288 209.887 -2.02979 180.438 7.29188C123.026 25.4506 63.0317 72.1666 35.1118 120.45C-0.295462 181.668 -9.68267 263.737 11.3847 327.934C22.936 363.136 53.434 412.706 76.9887 434.57C89.2558 445.965 90.1655 449.912 87.6625 481.055C84.0722 525.81 101.006 571.735 133.738 606.027C220.307 696.713 371.538 661.699 409.222 542.246C418.146 513.952 420.494 496.833 418.152 477.07C415.095 451.21 415.81 449.336 438.531 424.053C461.423 398.581 488.584 349.474 500.361 312.274C508.662 286.037 507.396 216.596 498.058 185.788ZM100.209 118.08C133.706 80.9821 163.918 63.7981 218.181 50.9707C224.102 49.5706 246.742 49.5006 268.498 50.8092C343.01 55.3004 409.099 101.473 439.876 170.531C451.288 196.127 453.624 209.59 453.699 250.183C453.785 293.873 452.03 302.693 437.121 333.653C427.949 352.694 414.298 375.317 406.778 383.923L393.117 399.567L371.156 377.816C334.489 341.493 307.28 330.599 253.206 330.588C199.126 330.578 171.858 341.488 135.191 377.805L113.235 399.556L101.824 386.61C66.1533 346.119 52.2177 306.668 52.5517 247.108C52.853 193.198 67.0253 154.823 100.209 118.08ZM1258.55 222.288C1250.09 226.219 1249.16 220.619 1247.78 157.419L1246.27 88.2466L1224.74 87.1104C1212.9 86.4911 1197.76 88.2305 1191.1 90.9769L1178.98 95.9797V294.745V493.516L1196.48 500.78C1207.77 505.46 1236.89 508.083 1278.56 508.163C1339.86 508.282 1344.31 507.539 1365.68 493.634C1415.6 461.156 1432.8 427.822 1433.23 362.716C1433.68 294.266 1414.92 254.276 1370.03 227.948C1348.94 215.589 1341.51 214.173 1306.96 215.96C1285.42 217.075 1263.63 219.924 1258.55 222.288ZM1561.63 167.026C1577.27 154.355 1578.55 123.352 1564.09 107.364C1552.08 94.0949 1525.48 92.824 1508.53 104.709C1499.25 111.203 1496.56 118.409 1496.56 136.713C1496.56 155.017 1499.25 162.222 1508.53 168.717C1524.61 179.988 1546.49 179.293 1561.63 167.026ZM852.36 251.653C844.017 243.791 828.03 232.277 816.84 226.074C801.08 217.339 787.052 214.797 754.643 214.797C717.029 214.797 710.123 216.499 686.284 231.62C656.216 250.7 651.221 256.338 634.4 290.189C624.663 309.791 622.338 323.69 622.241 362.889C622.09 423.574 635.81 454.818 675.97 485.26C705.597 507.711 732.811 514.092 778.725 509.353C842.87 502.73 893.575 438.819 893.661 364.488C893.688 344.633 890.943 321.611 887.562 313.329C871.296 273.409 866.462 264.938 852.36 251.653ZM1124.2 265.913C1133.25 246.026 1132.16 221.96 1122.03 218.066C1103.21 210.845 1009.47 215.368 985.209 224.668L960.987 233.952V368.424V502.902H993.283H1025.58L1027.03 390.983L1028.49 279.069L1043.18 273.393C1057.06 268.029 1091.55 269.736 1109.64 276.678C1115.04 278.751 1120.03 275.057 1124.2 265.913ZM1570.67 365.581C1571.97 241.254 1571.24 227.625 1562.91 221.529C1550.61 212.53 1515.56 212.95 1507.89 222.191C1503.57 227.404 1502.18 269.946 1503.2 366.243L1504.64 502.902H1536.93H1569.23L1570.67 365.581ZM1821.45 249.289C1824.44 229.386 1823.43 226.623 1811.12 221.017C1803.62 217.598 1775.19 214.819 1747.95 214.846C1704.48 214.894 1695.61 216.58 1675.51 228.632C1647.2 245.606 1636.51 265.396 1636.51 300.836C1636.51 325.887 1638.43 330.066 1659.54 350.912C1674.68 365.867 1694.5 378.064 1717.4 386.513C1736.56 393.584 1756.48 403.045 1761.66 407.542C1773.41 417.742 1773.83 437.365 1762.51 446.767C1751.67 455.771 1685.01 455.303 1662.73 446.073C1643.36 438.043 1638.95 441.958 1634.58 471.07C1629.84 502.67 1642.64 508.287 1719.41 508.287C1769.98 508.287 1782.04 506.591 1797.97 497.226C1859.66 460.968 1854.41 385.339 1787.76 350.427C1771.18 341.746 1751.35 333.173 1743.69 331.38C1724.42 326.867 1701.1 307.508 1701.1 296.016C1701.1 278.347 1718.77 268.649 1750.97 268.649C1767.56 268.649 1787.75 271.164 1795.83 274.233C1813.7 281.034 1817.2 277.626 1821.45 249.289ZM689.163 362.172C689.163 326.862 706.162 287.642 726.174 276.759C770.312 252.762 816.722 287.933 822.314 349.625C827.788 410.046 800.896 451.743 756.446 451.743C714.623 451.743 689.163 417.849 689.163 362.172ZM1251.65 283.059L1270.49 276.263C1295.63 267.195 1303.46 267.232 1325.66 276.506C1359.51 290.663 1377.01 350.201 1361.48 398.436C1358.24 408.501 1346.94 424.618 1336.37 434.242C1318.91 450.133 1314 451.743 1282.91 451.743H1248.68L1250.17 367.401L1251.65 283.059ZM161.663 427.009C161.663 417.601 194.681 391.554 216.776 383.54C254.18 369.97 295.368 378.5 327.314 406.443C345.034 421.942 346.428 424.888 339.291 431.77C325.441 445.13 296.283 451.743 251.198 451.743C205.123 451.743 161.663 439.734 161.663 427.009ZM200.537 595.397C165.463 576.598 140.133 538.675 140.133 504.981C140.133 480.651 141.64 480.317 185.374 494.959C204.391 501.319 231.627 505.595 253.168 505.595C274.71 505.595 301.946 501.319 320.963 494.959C364.928 480.241 366.204 480.554 366.204 505.918C366.204 534.642 339.576 575.752 310.068 592.591C282.305 608.435 227.477 609.84 200.537 595.397Z" fill="black"/>
</svg>
